<?xml version="1.0" encoding="utf-8"?>
<!-- Generator: Adobe Illustrator 23.0.6, SVG Export Plug-In . SVG Version: 6.00 Build 0)  -->
<svg version="1.1" id="Слой_1" xmlns="http://www.w3.org/2000/svg" xmlns:xlink="http://www.w3.org/1999/xlink" x="0px" y="0px"
	 viewBox="0 0 96 96" style="enable-background:new 0 0 96 96;" xml:space="preserve">
<title>Artboard 23</title>
<circle cx="38" cy="90" r="6"/>
<circle cx="66" cy="90" r="6"/>
<path d="M93.3,16.2c-1.9-0.7-4.3,0.1-5.1,2.2l-8.3,25.3c-1.6,4.9-6.2,8.2-11.4,8.2H38.8l-9.7-25.3L24.9,16l0,0l-0.7-1.8l0,0l0,0
	l-1.5-3.9C20.3,4.1,14.4,0,7.8,0H4C1.8,0,0,1.8,0,4s1.8,4,4,4h3.8c3.3,0,6.3,2,7.5,5.1l15,39c-6.5,1.1-10.9,7.3-9.8,13.9
	c1,5.6,5.8,9.8,11.5,9.9h48c2.2,0,4-1.8,4-4s-1.8-4-4-4H32c-2.2,0-4-1.8-4-4c0-2.2,1.8-4,4-4h36.5c8.6,0,16.3-5.5,19-13.7l8.3-25.1
	C96.5,19.2,95.4,16.9,93.3,16.2z"/>
<path d="M56.7,4.8L36.2,19.4c-0.5,0.4-0.3,1.2,0.4,1.2h4.6v19.7c0,0.8,0.6,1.5,1.4,1.5h7.7c0.8,0,1.4-0.7,1.4-1.5V30
	c0-0.8,0.6-1.5,1.4-1.5h7.6c0.8,0,1.4,0.7,1.4,1.5v10.3c0,0.8,0.6,1.5,1.4,1.5h7.8c0.8,0,1.4-0.7,1.4-1.5V20.6h4.6
	c0.7,0,1-0.8,0.4-1.2L57.5,4.8C57.3,4.7,56.9,4.7,56.7,4.8z"/>
</svg>
