<?xml version="1.0" encoding="utf-8"?>
<!-- Generator: Adobe Illustrator 23.0.6, SVG Export Plug-In . SVG Version: 6.00 Build 0)  -->
<svg version="1.1" id="Слой_1" xmlns="http://www.w3.org/2000/svg" xmlns:xlink="http://www.w3.org/1999/xlink" x="0px" y="0px"
	 viewBox="0 0 44.9 44.9" style="enable-background:new 0 0 44.9 44.9;" xml:space="preserve">
<style type="text/css">
	.st0{fill:none;stroke:#000000;stroke-width:5;stroke-linecap:round;stroke-linejoin:round;}
</style>
<g>
	<path class="st0" d="M20.5,16.5h18c2.2,0,4,2.2,4,4v18c0,2.2-1.8,4-4,4h-18c-2.2,0-4-2.2-4-4v-18C16.5,18.3,18.3,16.5,20.5,16.5
		L20.5,16.5z"/>
	<path class="st0" d="M8.5,28.4h-2c-1.1,0-2.1-0.4-2.8-1.2c-0.7-0.7-1.2-1.8-1.2-2.8v-18c0-1.1,0.4-2.1,1.2-2.8
		c0.7-0.7,1.8-1.2,2.8-1.2h18c1.1,0,2.1,0.4,2.8,1.2c0.7,0.7,1.2,1.8,1.2,2.8v2"/>
</g>
</svg>
