<?xml version="1.0" encoding="utf-8"?>
<!-- Generator: Adobe Illustrator 23.0.6, SVG Export Plug-In . SVG Version: 6.00 Build 0)  -->
<svg version="1.1" id="Слой_1" xmlns="http://www.w3.org/2000/svg" xmlns:xlink="http://www.w3.org/1999/xlink" x="0px" y="0px"
	 viewBox="0 0 69.2 67.7" style="enable-background:new 0 0 69.2 67.7;" xml:space="preserve">
<g>
	<g>
		<path d="M37,23.3H25v3c0,0.6,0.4,1,1,1h10c0.6,0,1-0.4,1-1V23.3z"/>
		<path d="M7,42.3v3h12v-3c0-0.6-0.4-1-1-1H8C7.5,41.3,7,41.7,7,42.3z"/>
		<rect x="9" y="29.3" width="8" height="10"/>
		<path d="M1,54.3c-0.6,0-1,0.4-1,1v3c0,0.6,0.4,1,1,1h37.9c-0.8-1.5-1.4-3.2-1.8-5H1z"/>
		<path d="M53,29.3h-8v8.1c2.4-1.3,5.1-2.1,8-2.1V29.3z"/>
		<path d="M37.4,47.3H5c-0.6,0-1,0.4-1,1v4h32.9c0-0.3,0-0.5,0-0.8C36.8,50,37.1,48.6,37.4,47.3z"/>
		<path d="M44,27.3h10c0.6,0,1-0.4,1-1v-3H43v3C43,26.8,43.5,27.3,44,27.3z"/>
		<path d="M4,21.3h54c0.6,0,1-0.4,1-1v-7c0-0.4-0.2-0.8-0.6-0.9L30.8,0L3.6,12.3C3.2,12.5,3,12.8,3,13.2v7C3,20.8,3.5,21.3,4,21.3z"
			/>
		<rect x="27" y="29.3" width="8" height="10"/>
		<path d="M25,42.3v3h12v-3c0-0.6-0.4-1-1-1H26C25.5,41.3,25,41.7,25,42.3z"/>
		<path d="M19,23.3H7v3c0,0.6,0.4,1,1,1h10c0.6,0,1-0.4,1-1V23.3z"/>
	</g>
	<path d="M53,35.3c-8.9,0-16.2,7.2-16.2,16.2S44,67.7,53,67.7s16.2-7.2,16.2-16.2S61.9,35.3,53,35.3z M61.4,47.9L61.4,47.9l-9.5,9.5
		C51.5,57.8,51,58,50.5,58s-1-0.2-1.4-0.6l-3.8-3.8c-0.8-0.7-0.9-2-0.2-2.8s2-0.9,2.8-0.2c0.1,0.1,0.2,0.1,0.2,0.2l2.4,2.4l8-8.1
		c0.8-0.8,2-0.8,2.8,0C62.2,45.9,62.2,47.1,61.4,47.9z"/>
</g>
</svg>
