<?xml version="1.0" encoding="utf-8"?>
<!-- Generator: Adobe Illustrator 23.0.6, SVG Export Plug-In . SVG Version: 6.00 Build 0)  -->
<svg version="1.1" id="Слой_1" xmlns="http://www.w3.org/2000/svg" xmlns:xlink="http://www.w3.org/1999/xlink" x="0px" y="0px"
	 viewBox="0 0 45.8 42.9" style="enable-background:new 0 0 45.8 42.9;" xml:space="preserve">
<style type="text/css">
	.st0{fill-rule:evenodd;clip-rule:evenodd;}
</style>
<title>Artboard 1 Copy 132</title>
<desc>Created with Sketch.</desc>
<path class="st0" d="M25.9,10.1l14.8,14.8c1.2,1.2,3.1,1.2,4.2,0c1.2-1.2,1.2-3.1,0-4.2L25.1,0.9C24.5,0.3,23.7,0,22.8,0
	c-0.8,0-1.6,0.3-2.2,0.9L0.9,20.7c-1.2,1.2-1.2,3.1,0,4.2c1.2,1.2,3.1,1.2,4.2,0l14.8-14.8v29.8c0,1.6,1.3,3,3,3s3-1.3,3-3V10.1z"/>
</svg>
