<?xml version="1.0" encoding="utf-8"?>
<!-- Generator: Adobe Illustrator 23.0.6, SVG Export Plug-In . SVG Version: 6.00 Build 0)  -->
<svg version="1.1" id="Слой_1" xmlns="http://www.w3.org/2000/svg" xmlns:xlink="http://www.w3.org/1999/xlink" x="0px" y="0px"
	 viewBox="0 0 96 96" style="enable-background:new 0 0 96 96;" xml:space="preserve">
<title>Artboard 90</title>
<path d="M84,20H68v-8c0-6.6-5.4-12-12-12H40c-6.6,0-12,5.4-12,12v8H12C5.4,20,0,25.4,0,32v52c0,6.6,5.4,12,12,12h72
	c6.6,0,12-5.4,12-12V32C96,25.4,90.6,20,84,20z M36,12c0-2.2,1.8-4,4-4h16c2.2,0,4,1.8,4,4v8H36V12z M12,28h72c2.2,0,4,1.8,4,4v16H8
	V32C8,29.8,9.8,28,12,28z M56,56c0,4.4-3.6,8-8,8s-8-3.6-8-8H56z M84,88H12c-2.2,0-4-1.8-4-4V56h24c0,8.8,7.2,16,16,16s16-7.2,16-16
	h24v28C88,86.2,86.2,88,84,88z"/>
</svg>
