<?xml version="1.0" encoding="utf-8"?>
<!-- Generator: Adobe Illustrator 23.0.6, SVG Export Plug-In . SVG Version: 6.00 Build 0)  -->
<svg version="1.1" id="Слой_1" xmlns="http://www.w3.org/2000/svg" xmlns:xlink="http://www.w3.org/1999/xlink" x="0px" y="0px"
	 viewBox="0 0 383.7 383.6" style="enable-background:new 0 0 383.7 383.6;" xml:space="preserve">
<g>
	<path d="M383.7,185.6c0,4,0,8,0,12c-0.3,2.1-0.6,4.2-0.9,6.2c-1.1,8.8-1.6,17.7-3.4,26.3c-8.9,42.9-30.1,78.7-63.4,107.2
		c-29.8,25.5-64.4,40.5-103.5,44.7c-4.7,0.5-9.4,1.1-14,1.6c-4.5,0-9,0-13.5,0c-1.7-0.3-3.4-0.7-5.1-0.9c-7.4-0.9-14.9-1.2-22.3-2.6
		c-34.5-6.4-65.6-20.5-91.5-44.2C8.6,283.4-11.8,218.6,6.6,143C25.3,66.3,92.8,9.1,171.3,1.1c22.3-2.3,44.4-1,66.1,4.4
		c40.6,10,74.4,31.2,101.2,63.2c24.8,29.6,39.4,63.6,43.5,102.1C382.6,175.7,383.2,180.7,383.7,185.6z M191.8,70.5
		c-14.8,1.3-29.5,2.6-44.3,4c-15.7,1.5-29.7,7.1-41.8,17.5c-11.5,9.9-21.5,21.1-24.8,36.2c-3,14.2-4.6,28.8-5.5,43.3
		c-0.7,10.6,0.2,21.5,1.5,32.1c1.2,9.8,2.6,20.1,6.4,29c8.7,20.4,24.2,34.5,44.9,42.7c2.3,0.9,3.3,1.9,3.2,4.5
		c-0.2,6.6,0,13.2-0.1,19.9c-0.1,5.2,1.7,9.4,6.7,11.4c5.1,2.1,9.2,0.1,12.7-3.6c7.2-7.6,14.5-15.2,21.9-22.6
		c1.2-1.2,3.4-2.2,5.1-2.2c19.1,0.4,38.1-0.5,57.2-2.9c16.2-2,30.7-7.3,43.1-18.1c11.3-9.9,21.2-21.1,24.3-36
		c3-14.2,4.7-28.8,5.4-43.3c0.6-12.4-1-24.9-2.1-37.3c-1.5-17.4-7.7-32.9-20.2-45.6c-11.3-11.4-23.9-20.5-40.1-23.3
		C227.8,73,209.9,71.1,191.8,70.5z"/>
	<path d="M140.9,279c0-6.2-0.1-12.5,0-18.7c0-2.5-0.7-3.7-3.3-4.6c-15.5-5.5-27.2-15.7-33.9-30.4c-3.4-7.5-4.7-16.3-5.4-24.7
		c-1-13.1-1.3-26.4-0.8-39.6c0.4-9.3,1.2-19,4.3-27.6c7.4-20.1,22-33,43.5-36.7c18.4-3.2,36.9-4.7,55.6-3.6
		c14.2,0.8,28.4,2.2,42.3,4.8c19.5,3.6,37.2,24.5,40.4,45.4c2.6,16.9,3.8,33.8,2.1,50.7c-0.9,8.7-2,17.4-4.1,25.8
		c-1.2,4.9-4,9.7-7,13.9c-10.5,14.4-24.4,23.4-42.6,24.6c-15.4,1-30.9,1.9-46.3,3.1c-1.8,0.1-3.8,1.2-5.1,2.4
		c-11.7,11.8-23.2,23.8-34.9,35.6c-1,1-2.6,1.5-4,2.2c-0.4-1.4-1-2.7-1-4.1C140.8,291.2,140.9,285.1,140.9,279z M201.4,207
		c-2.5-0.6-4.4-0.9-6.1-1.6c-15.8-6.2-25.7-18-31.4-33.7c-1.1-3-0.5-5.7,1.9-7.8c1.3-1.2,2.7-2.2,4-3.4c4.2-3.5,5.6-8.2,2.8-12.7
		c-4.8-7.4-10.1-14.6-15.4-21.6c-2.3-3-5.8-3.3-9.2-1.8c-6.1,2.7-11,6.8-14.6,12.5c-2.7,4.3-3.5,8.7-1.1,13.5c1.1,2.2,2,4.6,2.9,6.9
		c15.8,39.2,44.3,65.1,83.2,80.3c4.8,1.9,9.1,2.1,13.5-0.5c5.8-3.5,10.2-8.4,13-14.6c1.8-4.1,1.3-7.3-2.2-10.1
		c-6.7-5.2-13.6-10.2-20.7-14.9c-4-2.7-8.5-1.8-11.9,1.7c-1.4,1.4-2.4,3.3-3.9,4.6C204.7,205.3,202.8,206.1,201.4,207z M193.8,117.1
		c-1,0-2,0-3,0c-2.5,0-4.6,1.1-4.3,3.5c0.2,1.4,2.3,2.9,3.8,3.6c1.6,0.7,3.7,0.7,5.5,0.8c21.4,1.5,39.4,16.5,44.4,37.3
		c1.3,5.4,1.5,11.1,2.2,16.6c0.3,2.4,1.3,4.3,3.8,4.3c2.5-0.1,3.7-1.9,3.4-4.4c-0.5-5-0.8-9.9-1.6-14.9
		C244,138.4,219.7,117.5,193.8,117.1z M234.7,170.9c0.1,0,0.1,0,0.2,0c-0.3-2.3-0.6-4.7-1-7c-3.2-17.7-19.7-31.7-37.5-31.7
		c-2.2,0-4.2,0.2-4.7,2.7c-0.6,3,1.2,4.3,4,4.6c7.8,0.9,15.1,3,21.2,8.4c7.4,6.7,10.5,15.2,10.6,25c0,2.6,1,4.6,3.8,4.5
		c2.5-0.1,3.5-2.1,3.4-4.5C234.7,172.1,234.7,171.5,234.7,170.9z M220.6,167.9c-1.2-12.1-9.1-19.9-20.1-20.2
		c-2.4-0.1-4.3,0.5-4.5,3.3c-0.2,2.7,1.7,3.6,4,4c8.8,1.5,11,3.7,12.6,12.9c0.4,2.5,1.6,5,4.5,4.2
		C218.5,171.7,219.4,169.4,220.6,167.9z"/>
</g>
</svg>
