<?xml version="1.0" encoding="utf-8"?>
<!-- Generator: Adobe Illustrator 23.0.6, SVG Export Plug-In . SVG Version: 6.00 Build 0)  -->
<svg version="1.1" id="Слой_1" xmlns="http://www.w3.org/2000/svg" xmlns:xlink="http://www.w3.org/1999/xlink" x="0px" y="0px"
	 viewBox="0 0 86.8 86.8" style="enable-background:new 0 0 86.8 86.8;" xml:space="preserve">
<style type="text/css">
	.st0{fill:#25A4E2;}
	.st1{fill:#FFFFFF;}
	.st2{fill:#FEFEFE;}
</style>
<g>
	<g>
		<circle class="st0" cx="43.4" cy="43.4" r="40.6"/>
		<path class="st1" d="M43.4,4.8C64.7,4.8,82,22.1,82,43.4S64.7,82,43.4,82S4.8,64.7,4.8,43.4S22.1,4.8,43.4,4.8 M43.4,0.8
			C19.9,0.8,0.8,19.9,0.8,43.4S19.9,86,43.4,86S86,66.9,86,43.4S66.9,0.8,43.4,0.8L43.4,0.8z"/>
	</g>
	<path class="st2" d="M57.4,28.4c0.4-0.1,0.8-0.2,1.2-0.3c0.7-0.1,1.4,0,2,0.3c0.6,0.4,0.7,1,0.8,1.6c0.1,0.9-0.1,1.8-0.2,2.7
		c-0.3,2.7-0.7,5.4-1.1,8.1c-0.1,0.7-0.2,1.4-0.3,2.1c-0.2,1-0.3,2-0.5,3.1c-0.5,2.9-1,5.8-1.5,8.6c0,0.1,0,0.1,0,0.2
		c-0.2,1.2-0.4,2.3-0.7,3.5c-0.2,0.9-0.3,1.8-0.7,2.7c-0.7,1.7-1.9,2.3-3.7,1.7c-1.1-0.3-2-1-2.9-1.7c-1.9-1.3-3.8-2.5-5.6-3.8
		c0,0-0.1,0-0.1,0c-1.2-0.8-2.4-1.6-3.6-2.4c-0.6-0.4-1.2-0.7-1.7-1.2c-0.3-0.3-0.7-0.6-0.9-1c-0.3-0.5-0.3-1-0.1-1.5
		c0.2-0.4,0.4-0.8,0.7-1.1c0.7-0.7,1.4-1.5,2.2-2.2c0.4-0.4,1.7-1.8,2-2c0.5-0.4,0.8-0.8,1.3-1.2c1-1,2.1-2,3.1-2.9c1-1,2.1-2,3.1-3
		c0.3-0.2,0.5-0.5,0.7-0.8c0.2-0.2,0.2-0.4,0-0.7c-0.2-0.2-0.4-0.2-0.6-0.1c-0.4,0.1-0.8,0.4-1.1,0.6c-2.9,1.8-5.6,3.7-8.4,5.6
		c-1.5,1-2.9,1.9-4.3,2.9c-0.2,0.1-4.1,2.9-6.2,3c-0.9,0.1-1.8-0.1-2.6-0.3c-2.1-0.5-4.2-1.2-6.3-1.9c-0.4-0.2-0.8-0.3-1.2-0.5
		c-0.3-0.2-0.6-0.5-0.7-0.9c0-0.1,0-0.2,0-0.3c0-0.4,0.3-0.7,0.7-1c0.7-0.6,1.6-0.9,2.5-1.3c1.5-0.6,2.9-1.2,4.4-1.9
		c7.1-3.1,14.2-6.2,21.4-9.1c2.8-1.1,5.5-2.3,8.3-3.2C56.9,28.5,57.2,28.4,57.4,28.4z"/>
</g>
</svg>
