<?xml version="1.0" encoding="utf-8"?>
<!-- Generator: Adobe Illustrator 23.0.6, SVG Export Plug-In . SVG Version: 6.00 Build 0)  -->
<svg version="1.1"
	 id="Слой_1" xmlns:cc="http://creativecommons.org/ns#" xmlns:dc="http://purl.org/dc/elements/1.1/" xmlns:inkscape="http://www.inkscape.org/namespaces/inkscape" xmlns:rdf="http://www.w3.org/1999/02/22-rdf-syntax-ns#" xmlns:sodipodi="http://sodipodi.sourceforge.net/DTD/sodipodi-0.dtd" xmlns:svg="http://www.w3.org/2000/svg"
	 xmlns="http://www.w3.org/2000/svg" xmlns:xlink="http://www.w3.org/1999/xlink" x="0px" y="0px" viewBox="0 0 80 80"
	 style="enable-background:new 0 0 80 80;" xml:space="preserve">
<style type="text/css">
	.st0{fill-rule:evenodd;clip-rule:evenodd;}
</style>
<path class="st0" d="M40,0C17.9,0,0,17.9,0,40c0,8.3,2.5,16.1,7.1,22.7c0.3,0.5,0.4,1.1,0.3,1.7L3.3,78l13.3-4.6
	c0.6-0.2,1.2-0.1,1.7,0.2C24.5,77.6,32,80,40,80c22.1,0,40-17.9,40-40C80,17.8,62.1,0,40,0z M23.6,17.4l7.3,12l-3,3
	c-0.6,0.6-0.8,1.6-0.3,2.4c4.6,8,10.1,14.2,17.8,17.6c0.8,0.3,1.6,0.2,2.2-0.4l3.2-3.2l11.8,7.3c-1.3,2.9-3,4.7-4.9,5.7
	c-2.2,1.2-5,1.4-8.1,0.8c-6.3-1.3-13.8-6.2-20-12.5s-10.9-14-12.2-20.2c-0.6-3.1-0.3-5.8,0.8-7.9C19.1,20.1,20.8,18.5,23.6,17.4
	L23.6,17.4z"/>
</svg>
