<?xml version="1.0" encoding="utf-8"?>
<!-- Generator: Adobe Illustrator 23.0.6, SVG Export Plug-In . SVG Version: 6.00 Build 0)  -->
<svg version="1.1"
	 id="Слой_1" xmlns:cc="http://creativecommons.org/ns#" xmlns:dc="http://purl.org/dc/elements/1.1/" xmlns:inkscape="http://www.inkscape.org/namespaces/inkscape" xmlns:rdf="http://www.w3.org/1999/02/22-rdf-syntax-ns#" xmlns:sodipodi="http://sodipodi.sourceforge.net/DTD/sodipodi-0.dtd" xmlns:svg="http://www.w3.org/2000/svg"
	 xmlns="http://www.w3.org/2000/svg" xmlns:xlink="http://www.w3.org/1999/xlink" x="0px" y="0px" viewBox="0 0 88 88.3"
	 style="enable-background:new 0 0 88 88.3;" xml:space="preserve">
<style type="text/css">
	.st0{fill-rule:evenodd;clip-rule:evenodd;fill:#25D366;}
	.st1{fill:#FFFFFF;}
	.st2{fill-rule:evenodd;clip-rule:evenodd;fill:#FFFFFF;}
</style>
<g>
	<path class="st0" d="M44,86c-8.1,0-16-2.3-22.8-6.7L8,83.9l-3.7,1.3L9.4,68c0-0.1,0-0.2,0-0.2C4.6,60.8,2,52.6,2,44
		C2,20.8,20.8,2,44,2c23.2,0,42,18.8,42,42S67.2,86,44,86z M26.8,24c-1.3,0.8-2.3,1.7-2.8,2.9c-0.9,1.8-1.1,4.1-0.6,6.7
		C24.6,39.3,29,46.6,35,52.7c6.2,6.3,13.3,10.8,19,11.9c1,0.2,1.9,0.3,2.8,0.3c1.5,0,2.9-0.3,3.9-0.9c1.3-0.7,2.3-1.7,3.2-3.2
		l-8.9-5.5L53,57.4c-0.7,0.7-1.7,1.1-2.8,1.1c-0.5,0-1-0.1-1.6-0.3l-0.1,0c-7.4-3.3-13.4-9.1-18.7-18.4c-0.9-1.5-0.7-3.5,0.6-4.8
		l1.9-1.9L26.8,24z"/>
	<path class="st1" d="M44,4c22.1,0,40,17.8,40,40c0,22.1-17.9,40-40,40c-8,0-15.5-2.4-21.7-6.4c-0.3-0.2-0.7-0.3-1.1-0.3
		c-0.2,0-0.4,0-0.6,0.1L7.3,82l4.1-13.6c0.1-0.6,0-1.2-0.3-1.7C6.5,60.1,4,52.3,4,44C4,21.9,21.9,4,44,4 M56.8,66.9
		c1.8,0,3.5-0.4,4.9-1.1c1.9-1,3.6-2.8,4.9-5.7l-11.8-7.3L51.6,56c-0.4,0.4-0.9,0.6-1.3,0.6c-0.3,0-0.6-0.1-0.9-0.2
		c-7.7-3.4-13.2-9.6-17.8-17.6c-0.5-0.8-0.3-1.8,0.3-2.4l3-3l-7.3-12c-2.8,1.1-4.5,2.7-5.4,4.6c-1.1,2.1-1.4,4.8-0.8,7.9
		c1.3,6.2,6,13.9,12.2,20.2c6.2,6.3,13.7,11.2,20,12.5C54.7,66.8,55.8,66.9,56.8,66.9 M44,0C19.7,0,0,19.7,0,44
		c0,8.7,2.5,17,7.3,24.2L3.5,80.8l-2.3,7.5l7.4-2.6L21,81.5c6.9,4.3,14.9,6.5,23,6.5c24.3,0,44-19.7,44-44
		c0-11.8-4.6-22.9-12.9-31.2C66.8,4.6,55.8,0,44,0L44,0z M25.3,33.1c-0.4-2.1-0.3-3.9,0.4-5.3l0-0.1l0-0.1c0.1-0.3,0.3-0.5,0.5-0.8
		l3.6,5.8l-0.8,0.8c-1.4,1.4-2,3.4-1.6,5.3C26.4,36.9,25.7,34.9,25.3,33.1L25.3,33.1z M50.3,60.6c1.6,0,3.1-0.6,4.2-1.7l1-1l5.7,3.5
		c-0.4,0.4-0.8,0.7-1.2,0.9l0,0l0,0c-0.8,0.4-1.8,0.6-3,0.6c-0.8,0-1.6-0.1-2.4-0.3c-2-0.4-4.3-1.3-6.7-2.7c0,0,0.1,0,0.1,0.1l0.1,0
		l0.1,0C48.7,60.4,49.5,60.6,50.3,60.6L50.3,60.6z"/>
</g>
<path class="st2" d="M54.8,52.8L51.6,56c-0.6,0.6-1.4,0.7-2.2,0.4c-7.7-3.4-13.2-9.6-17.8-17.6c-0.5-0.8-0.3-1.8,0.3-2.4l3-3
	l-7.3-12c-2.8,1.1-4.5,2.7-5.4,4.6c-1.1,2.1-1.4,4.8-0.8,7.9c1.3,6.2,6,13.9,12.2,20.2c6.2,6.3,13.7,11.2,20,12.5
	c3.1,0.6,5.9,0.4,8.1-0.8c1.9-1,3.6-2.8,4.9-5.7L54.8,52.8z"/>
</svg>
