<?xml version="1.0" encoding="utf-8"?>
<!-- Generator: Adobe Illustrator 23.0.6, SVG Export Plug-In . SVG Version: 6.00 Build 0)  -->
<svg version="1.1" id="Слой_1" xmlns="http://www.w3.org/2000/svg" xmlns:xlink="http://www.w3.org/1999/xlink" x="0px" y="0px"
	 viewBox="0 0 88.9 59.7" style="enable-background:new 0 0 88.9 59.7;" xml:space="preserve">
<style type="text/css">
	.st0{fill:#F4F4F4;}
	.st1{fill:#129DFF;}
</style>
<g>
	<path class="st0" d="M7,37.1h20.5c1,0,1.9-0.8,1.9-1.9c0-1-0.8-1.9-1.9-1.9H7c-1,0-1.9,0.8-1.9,1.9C5.2,36.3,6,37.1,7,37.1z"/>
	<path class="st0" d="M4.4,44.1h20.5c1,0,1.9-0.8,1.9-1.9c0-1-0.8-1.9-1.9-1.9H4.4c-1,0-1.9,0.8-1.9,1.9C2.6,43.3,3.4,44.1,4.4,44.1
		z"/>
	<g>
		<path class="st1" d="M82.1,1H22.2c-3.2,0-5.8,2.6-5.8,5.8v24.1h11.2c2.4,0,4.3,2,4.3,4.3c0,2.1-1.6,3.9-3.6,4.3
			c0.6,0.8,1,1.7,1,2.8c0,2.1-1.6,3.9-3.6,4.3c0.6,0.8,1,1.7,1,2.8c0,2.4-1.9,4.3-4.3,4.3h-5.9c0.4,2.9,2.8,5.1,5.7,5.1h59.9
			c3.2,0,5.8-2.6,5.8-5.8V6.8C87.9,3.6,85.3,1,82.1,1L82.1,1z"/>
	</g>
	<path class="st0" d="M24.2,49.3c0-1-0.8-1.9-1.9-1.9l-20.5,0c-1,0-1.9,0.8-1.9,1.9c0,1,0.8,1.9,1.9,1.9h20.5
		C23.4,51.2,24.2,50.3,24.2,49.3L24.2,49.3z"/>
</g>
<polygon class="st0" points="82,16 82,8.5 52.1,27.1 22.3,8.5 22.3,16 52.2,34.6 "/>
</svg>
