<?xml version="1.0" encoding="utf-8"?>
<!-- Generator: Adobe Illustrator 23.0.6, SVG Export Plug-In . SVG Version: 6.00 Build 0)  -->
<svg version="1.1" id="Слой_1" xmlns="http://www.w3.org/2000/svg" xmlns:xlink="http://www.w3.org/1999/xlink" x="0px" y="0px"
	 viewBox="0 0 86 86" style="enable-background:new 0 0 86 86;" xml:space="preserve">
<style type="text/css">
	.st0{fill-rule:evenodd;clip-rule:evenodd;}
</style>
<title>Artboard 1 Copy 132</title>
<desc>Created with Sketch.</desc>
<g>
	<g>
		<path class="st0" d="M86,43C86,19.3,66.7,0,43,0S0,19.3,0,43s19.3,43,43,43S86,66.7,86,43L86,43z M80,43c0,20.4-16.6,37-37,37
			S6,63.4,6,43S22.6,6,43,6S80,22.6,80,43L80,43z"/>
		<path class="st0" d="M40,53.8L25.2,39c-1.2-1.2-3.1-1.2-4.2,0c-1.2,1.2-1.2,3.1,0,4.2L40.8,63c0.6,0.6,1.4,0.9,2.3,0.9
			c0.8,0,1.6-0.3,2.2-0.9L65,43.2c1.2-1.2,1.2-3.1,0-4.2c-1.2-1.2-3.1-1.2-4.2,0L46,53.8V24c0-1.6-1.3-3-3-3s-3,1.3-3,3V53.8z"/>
	</g>
</g>
</svg>
