<?xml version="1.0" encoding="utf-8"?>
<!-- Generator: Adobe Illustrator 23.0.6, SVG Export Plug-In . SVG Version: 6.00 Build 0)  -->
<svg version="1.1" id="Слой_1" xmlns="http://www.w3.org/2000/svg" xmlns:xlink="http://www.w3.org/1999/xlink" x="0px" y="0px"
	 viewBox="0 0 92 99.5" style="enable-background:new 0 0 92 99.5;" xml:space="preserve">
<title>Artboard 293</title>
<g>
	<path d="M30.9,88.1c7.3,7.3,17.2,11.4,27.6,11.4c12.3,0,23.8-5.8,31.2-15.6l1.5-2c1-1.4,1.1-3.2,0.1-4.6C85.6,68.8,77,62.7,67,60.2
		l-2-0.5c-1.4-0.3-2.8,0.1-3.8,1L55.9,66c-2.1,2.1-5.6,2.1-7.7,0L33.5,51.4c-2.1-2.1-2.1-5.6,0-7.7l5.3-5.3c1-1,1.4-2.5,1-3.8
		l-0.5-2c-2.5-10-8.6-18.6-17.2-24.3c-1.4-0.9-3.3-0.9-4.6,0.1l-2,1.5C5.8,17.2,0,28.8,0,41.1c0,10.3,4.1,20.3,11.4,27.6L30.9,88.1z
		 M20,16.6c5.7,4.5,9.7,10.8,11.5,17.8l-3.7,3.7c-5.2,5.2-5.3,13.7,0,19l0,0l14.7,14.6c5.2,5.2,13.7,5.3,19,0l0,0l3.7-3.7
		c7,1.8,13.3,5.9,17.8,11.6c-5.9,7.6-14.9,12-24.5,12c-8.2,0-16.1-3.2-21.9-9.1L17.1,63C11.2,57.2,8,49.3,8,41.1
		C8,31.5,12.5,22.5,20,16.6z"/>
	<g>
		<path d="M67.3,16.1c-3.2,0-5.8,2.6-5.8,5.8c0,3.2,2.6,5.8,5.8,5.8c3.2,0,5.8-2.6,5.8-5.8C73.1,18.7,70.5,16.1,67.3,16.1z"/>
		<path d="M82.6,6.5L82.6,6.5c-4-4.1-9.4-6.4-15.1-6.5c-0.1,0-0.3,0-0.3,0C61.4,0.1,56,2.4,52,6.5s-6.1,9.4-6,15
			c0.2,13.1,12.6,32.7,20.1,34.7c0.4,0.1,0.8,0.2,1.3,0.2l0,0c0.4,0,0.7-0.1,1-0.2c7.5-1.9,20-21.5,20.2-34.7
			C88.7,15.9,86.6,10.5,82.6,6.5z M67.3,34.9c-7.2,0-13-5.8-13-13s5.8-13,13-13s13,5.8,13,13S74.5,34.9,67.3,34.9z"/>
	</g>
</g>
</svg>
