<?xml version="1.0" encoding="utf-8"?>
<!-- Generator: Adobe Illustrator 23.0.6, SVG Export Plug-In . SVG Version: 6.00 Build 0)  -->
<svg version="1.1" id="Слой_1" xmlns="http://www.w3.org/2000/svg" xmlns:xlink="http://www.w3.org/1999/xlink" x="0px" y="0px"
	 viewBox="0 0 430.3 430.4" style="enable-background:new 0 0 430.3 430.4;" xml:space="preserve">
<g>
	<path d="M0,177.8c-0.2,3.1,0.5,6.3,2,9.1c1.5,2.8,3.7,5.1,6.5,6.6l145.6,82.9L237,422c1.5,2.6,3.6,4.7,6.2,6.2
		c2.6,1.5,5.5,2.3,8.4,2.3h1.1c3.1-0.2,6.2-1.3,8.7-3.1c2.6-1.8,4.5-4.4,5.7-7.3L429.1,23.1c1.7-4.1,1.7-8.7-0.1-12.8
		c-1.7-4.1-5-7.3-9.1-9.1c-4.1-1.7-8.7-1.7-12.8-0.1L10.4,163.3c-2.9,1.2-5.5,3.2-7.3,5.8C1.3,171.6,0.2,174.7,0,177.8L0,177.8z
		 M248.8,375.2l-61.6-108.4L366.4,87.7L248.8,375.2z M342.7,64L163.5,243.2L55.1,181.6L342.7,64z"/>
</g>
</svg>
