<?xml version="1.0" encoding="utf-8"?>
<!-- Generator: Adobe Illustrator 23.0.6, SVG Export Plug-In . SVG Version: 6.00 Build 0)  -->
<svg version="1.1" id="Слой_1" xmlns="http://www.w3.org/2000/svg" xmlns:xlink="http://www.w3.org/1999/xlink" x="0px" y="0px"
	 viewBox="0 0 45.8 42.9" style="enable-background:new 0 0 45.8 42.9;" xml:space="preserve">
<style type="text/css">
	.st0{fill-rule:evenodd;clip-rule:evenodd;}
</style>
<title>Artboard 1 Copy 132</title>
<desc>Created with Sketch.</desc>
<path class="st0" d="M19.9,32.8L5.1,18c-1.2-1.2-3.1-1.2-4.2,0c-1.2,1.2-1.2,3.1,0,4.2L20.7,42c0.6,0.6,1.4,0.9,2.3,0.9
	c0.8,0,1.6-0.3,2.2-0.9l19.7-19.8c1.2-1.2,1.2-3.1,0-4.2c-1.2-1.2-3.1-1.2-4.2,0L25.9,32.8V3c0-1.6-1.3-3-3-3s-3,1.3-3,3V32.8z"/>
</svg>
