<?xml version="1.0" encoding="utf-8"?>
<!-- Generator: Adobe Illustrator 23.0.6, SVG Export Plug-In . SVG Version: 6.00 Build 0)  -->
<svg version="1.1" id="Слой_1" xmlns="http://www.w3.org/2000/svg" xmlns:xlink="http://www.w3.org/1999/xlink" x="0px" y="0px"
	 viewBox="0 0 69.2 67.7" style="enable-background:new 0 0 69.2 67.7;" xml:space="preserve">
<style type="text/css">
	.st0{fill:url(#SVGID_1_);}
	.st1{fill:url(#SVGID_2_);}
	.st2{fill:url(#SVGID_3_);}
	.st3{fill:url(#SVGID_4_);}
	.st4{fill:url(#SVGID_5_);}
	.st5{fill:url(#SVGID_6_);}
	.st6{fill:url(#SVGID_7_);}
	.st7{fill:url(#SVGID_8_);}
	.st8{fill:url(#SVGID_9_);}
	.st9{fill:url(#SVGID_10_);}
	.st10{fill:url(#SVGID_11_);}
	.st11{fill:url(#SVGID_12_);}
</style>
<g>
	<g>
		<linearGradient id="SVGID_1_" gradientUnits="userSpaceOnUse" x1="25" y1="25.3" x2="37" y2="25.3">
			<stop  offset="0" style="stop-color:#375660"/>
			<stop  offset="0.9447" style="stop-color:#436B74"/>
			<stop  offset="1" style="stop-color:#446C75"/>
		</linearGradient>
		<path class="st0" d="M37,23.3H25v3c0,0.6,0.4,1,1,1h10c0.6,0,1-0.4,1-1V23.3z"/>
		<linearGradient id="SVGID_2_" gradientUnits="userSpaceOnUse" x1="7" y1="43.3" x2="19" y2="43.3">
			<stop  offset="0" style="stop-color:#375660"/>
			<stop  offset="0.9447" style="stop-color:#436B74"/>
			<stop  offset="1" style="stop-color:#446C75"/>
		</linearGradient>
		<path class="st1" d="M7,42.3v3h12v-3c0-0.6-0.4-1-1-1H8C7.5,41.3,7,41.7,7,42.3z"/>
		<linearGradient id="SVGID_3_" gradientUnits="userSpaceOnUse" x1="9" y1="34.3" x2="17" y2="34.3">
			<stop  offset="0" style="stop-color:#375660"/>
			<stop  offset="0.9447" style="stop-color:#436B74"/>
			<stop  offset="1" style="stop-color:#446C75"/>
		</linearGradient>
		<rect x="9" y="29.3" class="st2" width="8" height="10"/>
		<linearGradient id="SVGID_4_" gradientUnits="userSpaceOnUse" x1="0" y1="56.8" x2="38.9" y2="56.8">
			<stop  offset="0" style="stop-color:#375660"/>
			<stop  offset="0.9447" style="stop-color:#436B74"/>
			<stop  offset="1" style="stop-color:#446C75"/>
		</linearGradient>
		<path class="st3" d="M1,54.3c-0.6,0-1,0.4-1,1v3c0,0.6,0.4,1,1,1h37.9c-0.8-1.5-1.4-3.2-1.8-5H1z"/>
		<linearGradient id="SVGID_5_" gradientUnits="userSpaceOnUse" x1="45" y1="33.35" x2="53" y2="33.35">
			<stop  offset="0" style="stop-color:#375660"/>
			<stop  offset="0.9447" style="stop-color:#436B74"/>
			<stop  offset="1" style="stop-color:#446C75"/>
		</linearGradient>
		<path class="st4" d="M53,29.3h-8v8.1c2.4-1.3,5.1-2.1,8-2.1V29.3z"/>
		<linearGradient id="SVGID_6_" gradientUnits="userSpaceOnUse" x1="4" y1="49.8" x2="37.4" y2="49.8">
			<stop  offset="0" style="stop-color:#375660"/>
			<stop  offset="0.9447" style="stop-color:#436B74"/>
			<stop  offset="1" style="stop-color:#446C75"/>
		</linearGradient>
		<path class="st5" d="M37.4,47.3H5c-0.6,0-1,0.4-1,1v4h32.9c0-0.3,0-0.5,0-0.8C36.8,50,37.1,48.6,37.4,47.3z"/>
		<linearGradient id="SVGID_7_" gradientUnits="userSpaceOnUse" x1="43" y1="25.3" x2="55" y2="25.3">
			<stop  offset="0" style="stop-color:#375660"/>
			<stop  offset="0.9447" style="stop-color:#436B74"/>
			<stop  offset="1" style="stop-color:#446C75"/>
		</linearGradient>
		<path class="st6" d="M44,27.3h10c0.6,0,1-0.4,1-1v-3H43v3C43,26.8,43.5,27.3,44,27.3z"/>
		<linearGradient id="SVGID_8_" gradientUnits="userSpaceOnUse" x1="3" y1="10.65" x2="59" y2="10.65">
			<stop  offset="0" style="stop-color:#375660"/>
			<stop  offset="0.9447" style="stop-color:#436B74"/>
			<stop  offset="1" style="stop-color:#446C75"/>
		</linearGradient>
		<path class="st7" d="M4,21.3h54c0.6,0,1-0.4,1-1v-7c0-0.4-0.2-0.8-0.6-0.9L30.8,0L3.6,12.3C3.2,12.5,3,12.8,3,13.2v7
			C3,20.8,3.5,21.3,4,21.3z"/>
		<linearGradient id="SVGID_9_" gradientUnits="userSpaceOnUse" x1="27" y1="34.3" x2="35" y2="34.3">
			<stop  offset="0" style="stop-color:#375660"/>
			<stop  offset="0.9447" style="stop-color:#436B74"/>
			<stop  offset="1" style="stop-color:#446C75"/>
		</linearGradient>
		<rect x="27" y="29.3" class="st8" width="8" height="10"/>
		<linearGradient id="SVGID_10_" gradientUnits="userSpaceOnUse" x1="25" y1="43.3" x2="37" y2="43.3">
			<stop  offset="0" style="stop-color:#375660"/>
			<stop  offset="0.9447" style="stop-color:#436B74"/>
			<stop  offset="1" style="stop-color:#446C75"/>
		</linearGradient>
		<path class="st9" d="M25,42.3v3h12v-3c0-0.6-0.4-1-1-1H26C25.5,41.3,25,41.7,25,42.3z"/>
		<linearGradient id="SVGID_11_" gradientUnits="userSpaceOnUse" x1="7" y1="25.3" x2="19" y2="25.3">
			<stop  offset="0" style="stop-color:#375660"/>
			<stop  offset="0.9447" style="stop-color:#436B74"/>
			<stop  offset="1" style="stop-color:#446C75"/>
		</linearGradient>
		<path class="st10" d="M19,23.3H7v3c0,0.6,0.4,1,1,1h10c0.6,0,1-0.4,1-1V23.3z"/>
	</g>
	<linearGradient id="SVGID_12_" gradientUnits="userSpaceOnUse" x1="41.7151" y1="40.2338" x2="64.6463" y2="63.1651">
		<stop  offset="0" style="stop-color:#48E069"/>
		<stop  offset="1" style="stop-color:#309947"/>
	</linearGradient>
	<path class="st11" d="M53,35.3c-8.9,0-16.2,7.2-16.2,16.2S44,67.7,53,67.7s16.2-7.2,16.2-16.2S61.9,35.3,53,35.3z M61.4,47.9
		L61.4,47.9l-9.5,9.5C51.5,57.8,51,58,50.5,58s-1-0.2-1.4-0.6l-3.8-3.8c-0.8-0.7-0.9-2-0.2-2.8s2-0.9,2.8-0.2
		c0.1,0.1,0.2,0.1,0.2,0.2l2.4,2.4l8-8.1c0.8-0.8,2-0.8,2.8,0C62.2,45.9,62.2,47.1,61.4,47.9z"/>
</g>
</svg>
