<?xml version="1.0" encoding="utf-8"?>
<!-- Generator: Adobe Illustrator 23.0.6, SVG Export Plug-In . SVG Version: 6.00 Build 0)  -->
<svg version="1.1" id="Слой_1" xmlns="http://www.w3.org/2000/svg" xmlns:xlink="http://www.w3.org/1999/xlink" x="0px" y="0px"
	 viewBox="0 0 200 200" style="enable-background:new 0 0 200 200;" xml:space="preserve">
<path d="M100,0C44.8,0,0,44.8,0,100s44.8,100,100,100s100-44.8,100-100S155.2,0,100,0z M146.1,72.1c-0.8,7-1.9,14-2.9,20.9
	c-0.3,1.8-0.5,3.6-0.8,5.4c-0.4,2.7-0.9,5.3-1.3,8c-1.3,7.4-2.5,14.9-3.8,22.3c0,0.2,0,0.3,0,0.5c-0.6,3-1.1,6-1.7,9.1
	c-0.4,2.4-0.9,4.7-1.8,7c-1.9,4.5-4.9,5.9-9.6,4.4c-2.8-0.9-5.2-2.6-7.6-4.3c-4.8-3.4-9.8-6.5-14.6-9.9c-0.1,0-0.2-0.1-0.2-0.1
	c-3-2.2-6.1-4.2-9.2-6.3c-1.5-1-3-1.9-4.4-3.1c-0.9-0.8-1.8-1.6-2.3-2.7c-0.7-1.2-0.8-2.5-0.2-3.8c0.5-1,1-2,1.8-2.8
	c1.8-1.9,3.7-3.8,5.6-5.6c1.1-1.1,4.5-4.6,5.1-5.2c1.2-1,2.2-2,3.3-3.1c2.7-2.5,5.4-5.1,8-7.6c2.7-2.6,5.4-5.3,8.1-7.9
	c0.7-0.6,1.2-1.4,1.8-2.1c0.4-0.5,0.5-1.1,0.1-1.7c-0.4-0.6-1-0.5-1.6-0.3c-1.1,0.3-2,1-2.9,1.6c-7.4,4.7-14.6,9.6-21.8,14.4
	c-3.8,2.5-7.5,5-11.2,7.6c-0.5,0.3-10.5,7.5-16.1,7.9c-2.3,0.2-4.6-0.3-6.8-0.8c-5.5-1.3-10.8-3-16.2-4.8c-1.1-0.4-2.1-0.8-3-1.4
	c-0.8-0.6-1.5-1.3-1.7-2.4c-0.1-0.3-0.1-0.5,0-0.8c0.1-1.1,0.9-1.9,1.7-2.5c1.9-1.5,4.2-2.4,6.4-3.3c3.8-1.6,7.6-3.2,11.4-4.9
	c18.4-8,36.8-16.1,55.4-23.7c7.2-2.9,14.3-5.9,21.6-8.4c0.4-0.2,1-0.4,1.6-0.6c1-0.2,2-0.5,3.1-0.7c1.8-0.3,3.5-0.1,5.1,0.7
	c1.5,1,1.8,2.5,2,4.1C146.7,67.5,146.3,69.8,146.1,72.1z"/>
</svg>
