<?xml version="1.0" encoding="utf-8"?>
<!-- Generator: Adobe Illustrator 23.0.6, SVG Export Plug-In . SVG Version: 6.00 Build 0)  -->
<svg version="1.1" id="Слой_1" xmlns="http://www.w3.org/2000/svg" xmlns:xlink="http://www.w3.org/1999/xlink" x="0px" y="0px"
	 viewBox="0 0 94 94" style="enable-background:new 0 0 94 94;" xml:space="preserve">
<title>Artboard 6</title>
<path d="M50.1,3.7c-1.8-1.6-4.3-1.6-5.9,0L1.3,42.2c-1.8,1.6-1.8,4.5-0.2,6.3s4.3,1.8,6.1,0.4l3.6-3.2V87c0,2.5,2,4.5,4.5,4.5h63.3
	c2.5,0,4.5-2,4.5-4.5V45.6l3.6,3.2c1.8,1.6,4.7,1.4,6.3-0.5c1.6-1.8,1.4-4.5-0.4-6.1L50.1,3.7z M53.5,82.5H40.7V65h12.7V82.5z
	 M74.3,82.5H62.4v-22c0-2.5-2-4.5-4.5-4.5H36.3c-2.5,0-4.5,2-4.5,4.5v22h-12v-45L47,13.2l27.2,24.6V82.5z"/>
</svg>
