<?xml version="1.0" encoding="utf-8"?>
<!-- Generator: Adobe Illustrator 23.0.6, SVG Export Plug-In . SVG Version: 6.00 Build 0)  -->
<svg version="1.1" id="Слой_1" xmlns="http://www.w3.org/2000/svg" xmlns:xlink="http://www.w3.org/1999/xlink" x="0px" y="0px"
	 viewBox="0 0 96 96" style="enable-background:new 0 0 96 96;" xml:space="preserve">
<title>Artboard 77</title>
<path d="M48,0C21.5,0,0,21.5,0,48s21.5,48,48,48s48-21.5,48-48S74.5,0,48,0z M28,82.6V80c0-11,9-20,20-20s20,9,20,20v2.6
	C55.6,89.8,40.4,89.8,28,82.6z M36,40c0-6.6,5.4-12,12-12s12,5.4,12,12s-5.4,12-12,12S36,46.6,36,40z M75.8,76.7
	c-1.1-9.2-6.7-17.3-14.9-21.5c8.4-7.1,9.5-19.7,2.4-28.2s-19.7-9.5-28.2-2.4s-9.5,19.7-2.4,28.2c0.7,0.9,1.5,1.7,2.4,2.4
	c-8.2,4.3-13.8,12.3-14.9,21.5C4.3,61.4,3.9,36,19.2,20.1s40.7-16.3,56.6-1s16.3,40.7,1,56.6C76.4,76.1,76.1,76.4,75.8,76.7z"/>
</svg>
