<?xml version="1.0" encoding="utf-8"?>
<!-- Generator: Adobe Illustrator 23.0.6, SVG Export Plug-In . SVG Version: 6.00 Build 0)  -->
<svg version="1.1" id="Слой_1" xmlns="http://www.w3.org/2000/svg" xmlns:xlink="http://www.w3.org/1999/xlink" x="0px" y="0px"
	 viewBox="0 0 86 86" style="enable-background:new 0 0 86 86;" xml:space="preserve">
<style type="text/css">
	.st0{fill-rule:evenodd;clip-rule:evenodd;}
</style>
<title>Artboard 1 Copy 132</title>
<desc>Created with Sketch.</desc>
<g>
	<g>
		<path class="st0" d="M0,43c0,23.7,19.3,43,43,43s43-19.3,43-43S66.7,0,43,0S0,19.3,0,43L0,43z M6,43C6,22.6,22.6,6,43,6
			s37,16.6,37,37S63.4,80,43,80S6,63.4,6,43L6,43z"/>
		<path class="st0" d="M46,32.2L60.8,47c1.2,1.2,3.1,1.2,4.2,0c1.2-1.2,1.2-3.1,0-4.2L45.2,23c-0.6-0.6-1.4-0.9-2.3-0.9
			c-0.8,0-1.6,0.3-2.2,0.9L21,42.8c-1.2,1.2-1.2,3.1,0,4.2c1.2,1.2,3.1,1.2,4.2,0L40,32.2V62c0,1.6,1.3,3,3,3s3-1.3,3-3V32.2z"/>
	</g>
</g>
</svg>
