<?xml version="1.0" encoding="utf-8"?>
<!-- Generator: Adobe Illustrator 23.0.6, SVG Export Plug-In . SVG Version: 6.00 Build 0)  -->
<svg version="1.1" id="Слой_1" xmlns="http://www.w3.org/2000/svg" xmlns:xlink="http://www.w3.org/1999/xlink" x="0px" y="0px"
	 viewBox="0 0 88.1 95.9" style="enable-background:new 0 0 88.1 95.9;" xml:space="preserve">
<title>Artboard 354</title>
<path d="M8.1,63.9c-4.4,0-8,3.6-8,8v16c0,4.4,3.6,8,8,8h8c4.4,0,8-3.6,8-8v-16c0-4.4-3.6-8-8-8H8.1z M8.1,87.9v-16h8v16H8.1z"/>
<path d="M40.1,47.9c-4.4,0-8,3.6-8,8v32c0,4.4,3.6,8,8,8h8c4.4,0,8-3.6,8-8v-32c0-4.4-3.6-8-8-8H40.1z M40.1,87.9v-32h8v32H40.1z"/>
<path d="M72.1,95.9h8c4.4,0,8-3.6,8-8v-44c0-4.4-3.6-8-8-8h-8c-4.4,0-8,3.6-8,8v44C64.1,92.3,67.7,95.9,72.1,95.9z M72.1,43.9h8v44
	h-8V43.9z"/>
<path d="M68.2,22.9c-0.6,2.1,0.7,4.3,2.9,4.9l0,0c0.3,0.1,0.7,0.1,1,0.1c1.8,0,3.4-1.2,3.9-3l4-16l0,0c0.2-0.5,0.2-1.1,0.1-1.6
	s-0.3-1-0.5-1.5l0,0c-0.1-0.1-0.2-0.2-0.3-0.3c-0.2-0.3-0.5-0.6-0.8-0.8c-0.3-0.2-0.6-0.3-0.9-0.4c-0.2-0.1-0.3-0.2-0.5-0.2l-16-4
	C59-0.5,56.8,0.8,56.2,3s0.7,4.3,2.9,4.9l6.7,1.7l-63.9,39c-1.8,1-2.5,3.4-1.3,5.3c1.1,1.9,3.6,2.5,5.5,1.4c0,0,0.1,0,0.1-0.1
	l63.7-38.9L68.2,22.9z"/>
</svg>
