<?xml version="1.0" encoding="utf-8"?>
<!-- Generator: Adobe Illustrator 23.0.6, SVG Export Plug-In . SVG Version: 6.00 Build 0)  -->
<svg version="1.1" id="Слой_1" xmlns="http://www.w3.org/2000/svg" xmlns:xlink="http://www.w3.org/1999/xlink" x="0px" y="0px"
	 viewBox="0 0 88 88" style="enable-background:new 0 0 88 88;" xml:space="preserve">
<style type="text/css">
	.st0{fill-rule:evenodd;clip-rule:evenodd;}
</style>
<title>Artboard 1 Copy 135</title>
<desc>Created with Sketch.</desc>
<g>
	<g>
		<path class="st0" d="M88,44C88,19.7,68.3,0,44,0S0,19.7,0,44s19.7,44,44,44S88,68.3,88,44L88,44z M80,44c0,19.9-16.1,36-36,36
			S8,63.9,8,44S24.1,8,44,8S80,24.1,80,44L80,44z"/>
		<path class="st0" d="M40,51L28.3,39.3c-1.6-1.6-4.1-1.6-5.7,0s-1.6,4.1,0,5.7L41,63.4c0.8,0.8,1.9,1.2,3,1.2s2.1-0.4,2.9-1.2
			L65.3,45c1.6-1.6,1.6-4.1,0-5.7c-1.6-1.6-4.1-1.6-5.7,0L48,51V26c0-2.2-1.8-4-4-4s-4,1.8-4,4V51z"/>
	</g>
</g>
</svg>
