<?xml version="1.0" encoding="utf-8"?>
<!-- Generator: Adobe Illustrator 23.0.6, SVG Export Plug-In . SVG Version: 6.00 Build 0)  -->
<svg version="1.1" id="Слой_1" xmlns="http://www.w3.org/2000/svg" xmlns:xlink="http://www.w3.org/1999/xlink" x="0px" y="0px"
	 viewBox="0 0 88 88" style="enable-background:new 0 0 88 88;" xml:space="preserve">
<style type="text/css">
	.st0{fill-rule:evenodd;clip-rule:evenodd;}
</style>
<title>Artboard 1 Copy 135</title>
<desc>Created with Sketch.</desc>
<g>
	<g>
		<path class="st0" d="M0,44c0,24.3,19.7,44,44,44s44-19.7,44-44S68.3,0,44,0S0,19.7,0,44L0,44z M8,44C8,24.1,24.1,8,44,8
			s36,16.1,36,36S63.9,80,44,80S8,63.9,8,44L8,44z"/>
		<path class="st0" d="M48,37l11.7,11.7c1.6,1.6,4.1,1.6,5.7,0s1.6-4.1,0-5.7L47,24.6c-0.8-0.8-1.9-1.2-3-1.2s-2.1,0.4-2.9,1.2
			L22.7,43c-1.6,1.6-1.6,4.1,0,5.7c1.6,1.6,4.1,1.6,5.7,0L40,37v25c0,2.2,1.8,4,4,4s4-1.8,4-4V37z"/>
	</g>
</g>
</svg>
