<?xml version="1.0" encoding="utf-8"?>
<!-- Generator: Adobe Illustrator 23.0.6, SVG Export Plug-In . SVG Version: 6.00 Build 0)  -->
<svg version="1.1" id="Слой_1" xmlns="http://www.w3.org/2000/svg" xmlns:xlink="http://www.w3.org/1999/xlink" x="0px" y="0px"
	 viewBox="0 0 448.4 448.4" style="enable-background:new 0 0 448.4 448.4;" xml:space="preserve">
<style type="text/css">
	.st0{fill-rule:evenodd;clip-rule:evenodd;}
</style>
<path class="st0" d="M4.5,56C21.7,38.8,38.8,21.7,56,4.5c5.9-5.9,15.9-5.9,21.8,0c48.9,48.9,97.9,97.9,146.1,146.1
	c48.9-48.3,97.9-97.2,146.1-146.1c6.6-5.9,15.9-5.9,21.8,0L443.5,56c6.6,5.9,6.6,15.9,0,21.8c-48.3,48.9-97.2,97.9-146.1,146.1
	l146.1,146.1c6.6,6.6,6.6,15.9,0,21.8c-17.2,17.2-34.4,34.4-51.6,51.6c-5.9,6.6-15.2,6.6-21.8,0L224,297.4
	c-48.3,48.9-97.2,97.9-146.1,146.1c-5.9,6.6-15.9,6.6-21.8,0L4.5,391.9c-5.9-5.9-5.9-15.2,0-21.8c48.9-48.3,97.9-97.2,146.1-146.1
	C102.3,175.7,53.4,126.8,4.5,77.8C-1.5,71.9-1.5,62,4.5,56L4.5,56z"/>
</svg>
