<?xml version="1.0" encoding="utf-8"?>
<!-- Generator: Adobe Illustrator 23.0.6, SVG Export Plug-In . SVG Version: 6.00 Build 0)  -->
<svg version="1.1" id="Слой_1" xmlns="http://www.w3.org/2000/svg" xmlns:xlink="http://www.w3.org/1999/xlink" x="0px" y="0px"
	 viewBox="0 0 86.8 86.7" style="enable-background:new 0 0 86.8 86.7;" xml:space="preserve">
<style type="text/css">
	.st0{fill:#7D3DAF;}
	.st1{fill:#FFFFFF;}
</style>
<g>
	<g>
		<g>
			<path class="st0" d="M41.8,84.1L41.3,84c-0.2,0-0.4-0.1-0.5-0.1c-0.5-0.1-1-0.1-1.5-0.2c-1-0.1-2-0.2-3.1-0.4
				c-7.6-1.4-14.2-4.6-19.4-9.4C4.4,62.8,0.2,49,4.1,33.1C8,17,22.4,4.6,39,2.9c1.5-0.2,3-0.2,4.4-0.2c3.3,0,6.5,0.4,9.6,1.2
				c8.6,2.1,15.8,6.6,21.5,13.4c5.3,6.3,8.4,13.6,9.2,21.7c0.1,0.5,0.1,1,0.2,1.5c0.1,0.5,0.2,1.6,0.2,1.6v2.7l-0.2,1.4
				c-0.1,0.5-0.1,1-0.2,1.6c-0.1,1.3-0.3,2.5-0.5,3.8c-1.9,9.1-6.4,16.7-13.5,22.7c-6.3,5.4-13.7,8.6-22,9.5c-0.5,0.1-1,0.1-1.5,0.2
				c-0.4,0.1-1.4,0.2-1.4,0.2H41.8z M43.4,20.9c-2.9,0.3-5.9,0.5-8.8,0.8c-2.8,0.3-5.2,1.3-7.3,3.1C24.7,27,23.4,28.8,23,31
				c-0.5,2.4-0.9,5.2-1.1,8.4c-0.1,2.2,0.1,4.4,0.3,6.1c0.2,2,0.5,3.8,1.1,5.3c1.5,3.5,4.2,6,8,7.5c1.7,0.7,1.9,2.1,1.9,2.8
				c0,0.7,0,1.5,0,2.2c0,0.6,0,1.2,0,1.8c0,0.3,0,0.4,0,0.4l0.1,0c0,0,0.1-0.1,0.3-0.3c1.8-1.9,3.2-3.3,4.5-4.6c0.6-0.6,1.6-1,2.4-1
				c0.6,0,1.2,0,1.7,0c3.2,0,6.4-0.2,9.5-0.6c3.2-0.4,5.6-1.4,7.6-3.2c2.6-2.2,3.8-4.1,4.3-6.2c0.6-2.6,0.9-5.5,1-8.4
				c0.1-1.9-0.1-3.8-0.3-5.9c0-0.5-0.1-0.9-0.1-1.4c-0.3-3.3-1.4-5.9-3.5-8c-2.4-2.4-4.6-3.7-7-4.1C50.4,21.4,47,21,43.4,20.9z"/>
			<path class="st1" d="M43.5,4.7c3.1,0,6.1,0.4,9.1,1.1c8.2,2,15,6.3,20.4,12.8c5,6,8,12.8,8.8,20.6c0.1,1,0.2,2,0.3,3
				c0,0.8,0,1.6,0,2.4C82,45,82,45.4,81.9,45.8c-0.2,1.8-0.3,3.6-0.7,5.3c-1.8,8.7-6.1,15.9-12.8,21.6c-6,5.1-13,8.2-20.9,9
				c-0.9,0.1-1.9,0.2-2.8,0.3c-0.9,0-1.8,0-2.7,0c-0.3-0.1-0.7-0.1-1-0.2c-1.5-0.2-3-0.2-4.5-0.5c-7-1.3-13.2-4.1-18.5-8.9
				C6.4,61.9,2.3,48.8,6,33.5c3.8-15.5,17.4-27,33.2-28.6C40.7,4.8,42.1,4.7,43.5,4.7 M33.3,67.6c0.7,0,1.2-0.4,1.7-0.9
				c1.5-1.5,2.9-3.1,4.4-4.6c0.2-0.2,0.7-0.4,1-0.4c0.6,0,1.2,0,1.8,0c3.3,0,6.5-0.2,9.8-0.6c3.3-0.4,6.2-1.5,8.7-3.7
				c2.3-2,4.3-4.3,4.9-7.3c0.6-2.9,0.9-5.8,1.1-8.7c0.1-2.5-0.2-5-0.4-7.5c-0.3-3.5-1.6-6.6-4.1-9.2c-2.3-2.3-4.8-4.1-8.1-4.7
				c-3.5-0.6-7.1-1-10.8-1.2c-3,0.3-6,0.5-8.9,0.8c-3.2,0.3-6,1.4-8.4,3.5c-2.3,2-4.3,4.3-5,7.3c-0.6,2.9-0.9,5.8-1.1,8.7
				c-0.1,2.1,0,4.3,0.3,6.5c0.2,2,0.5,4.1,1.3,5.9c1.8,4.1,4.9,7,9.1,8.6c0.5,0.2,0.7,0.4,0.6,0.9c0,1.3,0,2.7,0,4
				c0,1,0.3,1.9,1.4,2.3C32.8,67.6,33.1,67.6,33.3,67.6 M43.5,0.7c-1.5,0-3.1,0.1-4.6,0.2C30.2,1.8,22.2,5.3,15.5,11
				C8.8,16.7,4.2,24.2,2.1,32.6c-4.1,16.7,0.4,31.1,13.2,42.8c5.6,5.1,12.4,8.4,20.4,9.9c1.1,0.2,2.2,0.3,3.3,0.4
				c0.5,0,1,0.1,1.5,0.2c0.1,0,0.3,0,0.4,0.1c0.1,0,0.3,0.1,0.4,0.1l0.3,0.1H42h2.7H45l0.2,0c0.4,0,0.9-0.1,1.4-0.2
				c0.5-0.1,1-0.1,1.5-0.2c8.7-0.9,16.4-4.3,23.1-10c7.4-6.3,12.1-14.4,14.1-23.9c0.3-1.4,0.4-2.7,0.6-4c0.1-0.5,0.1-1,0.2-1.5
				c0.1-0.4,0.1-0.8,0.2-1.2l0-0.3l0-0.3v-2.4v-0.2l0-0.2c-0.1-0.5-0.1-1-0.2-1.5c-0.1-0.5-0.1-1-0.2-1.5
				c-0.9-8.5-4.2-16.2-9.7-22.8c-6-7.1-13.5-11.9-22.5-14.1C50.3,1.1,46.9,0.7,43.5,0.7L43.5,0.7z M35.2,60.8
				c-0.1-2-1.2-3.6-3.2-4.3c-3.3-1.3-5.5-3.4-6.8-6.5c-0.5-1.3-0.8-2.9-1-4.8c-0.2-1.6-0.4-3.8-0.3-5.7c0.2-3.1,0.5-5.8,1-8.2
				c0.4-1.6,1.5-3.2,3.7-5.1c1.8-1.5,3.8-2.3,6.2-2.6c2.9-0.3,5.8-0.5,8.7-0.8c3.4,0.1,6.7,0.5,10,1.1c2,0.4,3.9,1.5,6,3.6
				c1.7,1.8,2.7,4,2.9,6.7c0,0.5,0.1,0.9,0.1,1.4c0.2,2,0.4,3.8,0.3,5.6c-0.1,2.9-0.5,5.6-1,8.1c-0.3,1.6-1.4,3.2-3.6,5.1
				c-1.7,1.5-3.8,2.4-6.6,2.7c-3,0.4-6.2,0.6-9.3,0.6c-0.6,0-1.1,0-1.7,0l0,0h0c-1.4,0-2.9,0.6-3.9,1.6
				C36.2,59.8,35.7,60.3,35.2,60.8L35.2,60.8z"/>
		</g>
		<path class="st1" d="M43.4,18.9C47,19,50.7,19.4,54.2,20c3.3,0.6,5.8,2.4,8.1,4.7c2.5,2.6,3.8,5.7,4.1,9.2c0.2,2.5,0.5,5,0.4,7.5
			c-0.1,2.9-0.5,5.9-1.1,8.7c-0.6,3-2.6,5.3-4.9,7.3c-2.5,2.2-5.4,3.2-8.7,3.7c-3.8,0.5-7.7,0.7-11.5,0.6c-0.3,0-0.8,0.2-1,0.4
			c-1.5,1.5-3,3-4.4,4.6c-0.7,0.8-1.5,1.2-2.6,0.7c-1-0.4-1.4-1.3-1.4-2.3c0-1.3,0-2.7,0-4c0-0.5-0.2-0.7-0.6-0.9
			c-4.2-1.7-7.3-4.5-9.1-8.6c-0.8-1.8-1-3.9-1.3-5.9c-0.3-2.1-0.4-4.3-0.3-6.5c0.2-2.9,0.5-5.9,1.1-8.7c0.6-3,2.7-5.3,5-7.3
			c2.4-2.1,5.2-3.2,8.4-3.5C37.4,19.4,40.4,19.2,43.4,18.9z M33.1,61c0,1.2,0,2.5,0,3.7c0,0.3,0.1,0.5,0.2,0.8
			c0.3-0.1,0.6-0.2,0.8-0.4c2.4-2.4,4.7-4.8,7-7.2c0.3-0.3,0.7-0.5,1-0.5c3.1-0.2,6.2-0.4,9.3-0.6c3.7-0.2,6.5-2.1,8.6-5
			c0.6-0.8,1.2-1.8,1.4-2.8c0.4-1.7,0.6-3.5,0.8-5.2c0.3-3.4,0.1-6.8-0.4-10.2c-0.6-4.2-4.2-8.4-8.2-9.2c-2.8-0.5-5.7-0.8-8.5-1
			c-3.8-0.2-7.5,0.1-11.2,0.7c-4.4,0.8-7.3,3.3-8.8,7.4c-0.6,1.7-0.8,3.7-0.9,5.6c-0.1,2.7-0.1,5.3,0.2,8c0.1,1.7,0.4,3.5,1.1,5
			c1.4,3,3.7,5,6.8,6.1c0.5,0.2,0.7,0.4,0.7,0.9C33.1,58.5,33.1,59.7,33.1,61z"/>
		<path class="st0" d="M33.1,61c0-1.3,0-2.5,0-3.8c0-0.5-0.1-0.7-0.7-0.9c-3.1-1.1-5.5-3.2-6.8-6.1c-0.7-1.5-0.9-3.3-1.1-5
			c-0.2-2.6-0.3-5.3-0.2-8c0.1-1.9,0.2-3.8,0.9-5.6c1.5-4.1,4.4-6.7,8.8-7.4c3.7-0.6,7.4-0.9,11.2-0.7c2.9,0.2,5.7,0.4,8.5,1
			c3.9,0.7,7.5,4.9,8.2,9.2c0.5,3.4,0.8,6.8,0.4,10.2c-0.2,1.8-0.4,3.5-0.8,5.2c-0.2,1-0.8,2-1.4,2.8c-2.1,2.9-4.9,4.7-8.6,5
			c-3.1,0.2-6.2,0.4-9.3,0.6c-0.4,0-0.8,0.2-1,0.5c-2.4,2.4-4.7,4.8-7,7.2c-0.2,0.2-0.5,0.3-0.8,0.4c-0.1-0.3-0.2-0.5-0.2-0.8
			C33.1,63.4,33.1,62.2,33.1,61z M45.3,46.4c-0.5-0.1-0.9-0.2-1.2-0.3c-3.2-1.3-5.2-3.6-6.3-6.8c-0.2-0.6-0.1-1.2,0.4-1.6
			c0.3-0.2,0.5-0.4,0.8-0.7c0.8-0.7,1.1-1.7,0.6-2.6c-1-1.5-2-2.9-3.1-4.4c-0.5-0.6-1.2-0.7-1.9-0.4c-1.2,0.5-2.2,1.4-2.9,2.5
			c-0.5,0.9-0.7,1.8-0.2,2.7c0.2,0.4,0.4,0.9,0.6,1.4c3.2,7.9,8.9,13.1,16.8,16.2c1,0.4,1.8,0.4,2.7-0.1c1.2-0.7,2.1-1.7,2.6-2.9
			c0.4-0.8,0.3-1.5-0.4-2c-1.4-1-2.7-2.1-4.2-3c-0.8-0.5-1.7-0.4-2.4,0.3c-0.3,0.3-0.5,0.7-0.8,0.9C46,46.1,45.6,46.3,45.3,46.4z
			 M43.8,28.3c-0.2,0-0.4,0-0.6,0c-0.5,0-0.9,0.2-0.9,0.7c0,0.3,0.5,0.6,0.8,0.7c0.3,0.1,0.7,0.1,1.1,0.2c4.3,0.3,8,3.3,9,7.5
			c0.3,1.1,0.3,2.2,0.4,3.3c0.1,0.5,0.3,0.9,0.8,0.9c0.5,0,0.7-0.4,0.7-0.9c-0.1-1-0.2-2-0.3-3C53.9,32.6,49,28.4,43.8,28.3z
			 M52,39.2C52.1,39.2,52.1,39.2,52,39.2c0-0.5-0.1-0.9-0.2-1.4c-0.6-3.6-4-6.4-7.6-6.4c-0.4,0-0.8,0-0.9,0.5
			c-0.1,0.6,0.2,0.9,0.8,0.9c1.6,0.2,3,0.6,4.3,1.7c1.5,1.4,2.1,3.1,2.1,5c0,0.5,0.2,0.9,0.8,0.9c0.5,0,0.7-0.4,0.7-0.9
			C52,39.4,52,39.3,52,39.2z M49.2,38.6c-0.2-2.4-1.8-4-4.1-4.1c-0.5,0-0.9,0.1-0.9,0.7c0,0.5,0.3,0.7,0.8,0.8
			c1.8,0.3,2.2,0.7,2.5,2.6c0.1,0.5,0.3,1,0.9,0.8C48.8,39.3,49,38.9,49.2,38.6z"/>
		<path class="st1" d="M45.3,46.4c0.3-0.2,0.7-0.4,1-0.6s0.5-0.6,0.8-0.9c0.7-0.7,1.6-0.9,2.4-0.3c1.4,0.9,2.8,2,4.2,3
			c0.7,0.5,0.8,1.2,0.4,2c-0.6,1.3-1.5,2.2-2.6,2.9c-0.9,0.5-1.8,0.5-2.7,0.1c-7.8-3.1-13.6-8.3-16.8-16.2c-0.2-0.5-0.4-0.9-0.6-1.4
			c-0.5-1-0.3-1.9,0.2-2.7c0.7-1.2,1.7-2,2.9-2.5c0.7-0.3,1.4-0.2,1.9,0.4c1.1,1.4,2.2,2.8,3.1,4.4c0.6,0.9,0.3,1.9-0.6,2.6
			c-0.3,0.2-0.5,0.4-0.8,0.7c-0.5,0.4-0.6,1-0.4,1.6c1.2,3.2,3.1,5.5,6.3,6.8C44.4,46.3,44.8,46.3,45.3,46.4z"/>
		<path class="st1" d="M43.8,28.3c5.2,0.1,10.1,4.3,11,9.5c0.2,1,0.2,2,0.3,3c0,0.5-0.2,0.9-0.7,0.9c-0.5,0-0.7-0.4-0.8-0.9
			c-0.1-1.1-0.2-2.3-0.4-3.3c-1-4.2-4.6-7.2-9-7.5c-0.4,0-0.8,0-1.1-0.2s-0.7-0.4-0.8-0.7c-0.1-0.5,0.4-0.7,0.9-0.7
			C43.4,28.3,43.6,28.3,43.8,28.3z"/>
		<path class="st1" d="M52,39.2c0,0.1,0,0.2,0,0.4c0,0.5-0.2,0.9-0.7,0.9c-0.6,0-0.8-0.4-0.8-0.9c0-2-0.6-3.7-2.1-5
			c-1.2-1.1-2.7-1.5-4.3-1.7c-0.6-0.1-0.9-0.3-0.8-0.9c0.1-0.5,0.5-0.5,0.9-0.5c3.6,0,6.9,2.8,7.6,6.4C52,38.2,52,38.7,52,39.2
			C52.1,39.1,52.1,39.2,52,39.2z"/>
		<path class="st1" d="M49.2,38.6c-0.2,0.3-0.4,0.7-0.7,0.8c-0.6,0.2-0.8-0.3-0.9-0.8c-0.3-1.9-0.8-2.3-2.5-2.6
			c-0.5-0.1-0.8-0.3-0.8-0.8s0.4-0.7,0.9-0.7C47.4,34.5,48.9,36.1,49.2,38.6z"/>
	</g>
</g>
</svg>
