<?xml version="1.0" encoding="utf-8"?>
<!-- Generator: Adobe Illustrator 23.0.6, SVG Export Plug-In . SVG Version: 6.00 Build 0)  -->
<svg version="1.1" id="Слой_1" xmlns="http://www.w3.org/2000/svg" xmlns:xlink="http://www.w3.org/1999/xlink" x="0px" y="0px"
	 viewBox="0 0 64.6 64.6" style="enable-background:new 0 0 64.6 64.6;" xml:space="preserve">
<g>
	<g>
		<path d="M60.9,40.5L53,34.2c-1.7-1.4-3.9-2.1-6-2.1c-2.8,0-5.5,1.2-7.4,3.4c-0.4,0.5-0.7,0.8-1,1.2c-1.1-0.7-2.9-2-5.8-4.9
			c-2.9-2.9-4.2-4.7-4.9-5.8c0.3-0.3,0.7-0.6,1.2-1c4-3.4,4.6-9.3,1.3-13.4L24,3.7C22.1,1.4,19.4,0,16.4,0l0,0
			c-1.3,0-2.6,0.3-3.9,0.8C9.2,2.2,4.6,6.2,3.7,7.2c-6.1,6.1-3.3,15.1-1,19.8c2.9,6.1,8.1,13,15,19.9C24.3,53.5,37,64.6,48,64.6
			c3.7,0,7-1.3,9.4-3.7c1-1,5-5.5,6.4-8.8C65.5,48,64.3,43.2,60.9,40.5z M58.4,49.7c-0.9,2.2-4.1,6-5.1,7c-1.4,1.4-3.2,2-5.3,2
			c-6.7,0-16.6-6.4-26.2-16C9.3,30.2,2.1,17,7.8,11.3c1-1,4.9-4.2,7-5.2c0.5-0.2,1-0.3,1.5-0.3c1.2,0,2.3,0.5,3,1.5l6.3,7.9
			c1.3,1.6,1.1,4-0.5,5.3c-1.6,1.4-2.7,2.4-3,2.7c-2.4,2.4,1.1,7.4,6.4,12.7c4.1,4.1,8.1,7.2,10.8,7.2c0.8,0,1.4-0.2,1.9-0.8
			c0.3-0.3,1.3-1.4,2.7-3c0.8-0.9,1.9-1.4,2.9-1.4c0.8,0,1.7,0.3,2.4,0.8l7.9,6.3C58.6,46.2,59.1,48.1,58.4,49.7z"/>
	</g>
</g>
</svg>
