<?xml version="1.0" encoding="utf-8"?>
<!-- Generator: Adobe Illustrator 23.0.6, SVG Export Plug-In . SVG Version: 6.00 Build 0)  -->
<svg version="1.1" id="Слой_1" xmlns="http://www.w3.org/2000/svg" xmlns:xlink="http://www.w3.org/1999/xlink" x="0px" y="0px"
	 viewBox="0 0 95 95" style="enable-background:new 0 0 95 95;" xml:space="preserve">
<g>
	<path d="M47.5,0C21.3,0,0,21.3,0,47.5S21.3,95,47.5,95S95,73.7,95,47.5S73.7,0,47.5,0z M73.6,65.1c-0.9,2.2-2.5,4.4-3.5,5.4
		c-5.7,5.7-21,0.6-33.6-12s-17.7-27.8-12-33.6c1-1,3.3-2.6,5.4-3.5c1.6-0.7,3.5-0.2,4.6,1.2l6.3,8c1.3,1.6,1.1,4-0.5,5.4
		s-2.7,2.4-3,2.7c-2.4,2.4,1.1,7.5,6.4,12.8s10.3,8.9,12.8,6.4c0.3-0.3,1.3-1.4,2.7-3s3.7-1.8,5.4-0.5l8,6.3
		C73.9,61.5,74.3,63.4,73.6,65.1z"/>
</g>
</svg>
