<svg id="Слой_1" data-name="Слой 1" xmlns="http://www.w3.org/2000/svg" viewBox="0 0 201.46 52.45"><defs><style>.cls-1{fill:#f4f4f4;}</style></defs><title>Монтажная область 1</title><path class="cls-1" d="M6,52.45V7.12H0V0H13.11V38.21L31.84,0H39V52.45H31.84V14.24L13.11,52.45Z"/><path class="cls-1" d="M119.92,52.45H88.45V0h31.47V7.12H95.56V22.48h17.61V29.6H95.56V45.33h24.36Z"/><path class="cls-1" d="M153.26,15a7.69,7.69,0,0,0-7.87-7.87H122.16V0h23.23a14.32,14.32,0,0,1,5.81,1.2,15.16,15.16,0,0,1,8,8,14.64,14.64,0,0,1,0,11.61,15.16,15.16,0,0,1-8,8,14.32,14.32,0,0,1-5.81,1.2H135.28V52.45h-7.12V22.85h17.23A7.67,7.67,0,0,0,153.26,15Z"/><path class="cls-1" d="M194.34,0,175.61,38.21V0H153.8l0,0a17.28,17.28,0,0,1,3.72,2.82,17.57,17.57,0,0,1,3.12,4.28h7.83V52.45h7.12l18.73-38.21V52.45h7.12V0Z"/><polygon class="cls-1" points="80.2 45.33 80.2 0 73.09 0 73.09 22.48 54.35 22.48 54.35 0 41.24 0 41.24 7.12 47.24 7.12 47.24 52.45 54.35 52.45 54.35 29.6 73.09 29.6 73.09 52.45 80.2 52.45 86.2 52.45 86.2 45.33 80.2 45.33"/></svg>